<svg xmlns="http://www.w3.org/2000/svg" viewBox="0 0 24 24">
    <path d="m12 12q-1.65 0-2.825-1.175t-1.175-2.825 1.175-2.825 2.825-1.175 2.825 1.175 1.175 2.825-1.175 2.825-2.825 1.175zm-8 8v-2.8q0-0.85 0.4375-1.5625t1.1625-1.0875q1.55-0.775 3.15-1.1625t3.25-0.3875 3.25 0.3875 3.15 1.1625q0.725 0.375 1.1625 1.0875t0.4375 1.5625v2.8zm2-2h12v-0.8q0-0.275-0.1375-0.5t-0.3625-0.35q-1.35-0.675-2.725-1.0125t-2.775-0.3375-2.775 0.3375-2.725 1.0125q-0.225 0.125-0.3625 0.35t-0.1375 0.5zm6-8q0.825 0 1.4125-0.5875t0.5875-1.4125-0.5875-1.4125-1.4125-0.5875-1.4125 0.5875-0.5875 1.4125 0.5875 1.4125 1.4125 0.5875z" />
</svg>
